<svg width="512" height="512" viewBox="0 0 512 512" fill="none" xmlns="http://www.w3.org/2000/svg">
<rect width="512" height="512" rx="64" fill="#121212"/>
<path d="M128 192H384V352C384 388.137 356.137 416 320 416H192C155.863 416 128 388.137 128 352V192Z" fill="#F8F8F8"/>
<path d="M384 240H416C433.673 240 448 254.327 448 272V304C448 321.673 433.673 336 416 336H384V240Z" fill="#F8F8F8"/>
<path d="M208 112C208 103.163 215.163 96 224 96C232.837 96 240 103.163 240 112V160C240 168.837 232.837 176 224 176C215.163 176 208 168.837 208 160V112Z" fill="#D4AF37" fill-opacity="0.8"/>
<path d="M272 112C272 103.163 279.163 96 288 96C296.837 96 304 103.163 304 112V160C304 168.837 296.837 176 288 176C279.163 176 272 168.837 272 160V112Z" fill="#D4AF37" fill-opacity="0.8"/>
<path d="M336 112C336 103.163 343.163 96 352 96C360.837 96 368 103.163 368 112V160C368 168.837 360.837 176 352 176C343.163 176 336 168.837 336 160V112Z" fill="#D4AF37" fill-opacity="0.8"/>
</svg>
